<svg id="Layer_1" data-name="Layer 1" xmlns="http://www.w3.org/2000/svg" viewBox="0 0 994.19 267.01"><defs><style>.cls-1{fill:#fff;}</style></defs><g id="LOGO"><path class="cls-1" d="M628.86,568.14a10.6,10.6,0,0,0-14.68,3c-3.19,4.84-9.36,9.63-11.49,11.08l-.42.3a66.62,66.62,0,0,1-9.34,5.88l-.12.07a65.56,65.56,0,0,1-30.35,7.34c-14,0-31.25-3.28-53.79-27.63a97.82,97.82,0,0,1-25.08-65.47,10.59,10.59,0,1,0-21.18,0,119,119,0,0,0,30.64,79.78C515.11,606.37,536.52,617,562.46,617a87.06,87.06,0,0,0,52.34-17.4c1.84-1.26,11.27-8,17.07-16.8a10.6,10.6,0,0,0-3-14.67Z" transform="translate(-462.41 -350)"/><path class="cls-1" d="M653.74,373.05c.86.18,1.71.38,2.59.6l.72.2a10.58,10.58,0,0,0,13.21-6.94,10.6,10.6,0,0,0-6.92-13.29c-.35-.11-1.69-.47-1.84-.51-1.08-.27-2.16-.53-3.25-.76a10.59,10.59,0,0,0-4.51,20.7Z" transform="translate(-462.41 -350)"/><path class="cls-1" d="M529.73,484.76c.45,1.83,1,3.8,1.73,6.11,0,.1,0,.21.08.31l.65,2a118.05,118.05,0,0,0,7.43,19.33c6.15,13.49,19.82,26.45,36.51,25A29.17,29.17,0,0,0,597,491l-.78-1-4-5.76-.38-.67-.47-.84c-.15-.27-.29-.55-.51-1l-.29-.56c-.19-.39-.38-.78-.56-1.18l-.19-.38c-.23-.53-.47-1.05-.69-1.59-.38-.92-.74-1.9-1.12-3a49.64,49.64,0,0,1-2.65-16c0-1.49.08-3,.22-4.6l.12-.95a51.32,51.32,0,0,1,5.59-18,50.26,50.26,0,0,1,22.08-21.22,49.37,49.37,0,0,1,21.79-5h.54s.38,0,1.58,0h.54a54.37,54.37,0,0,1,21.83,5.32,50.08,50.08,0,0,1,21.27,19.81,49.14,49.14,0,0,1,6.5,20.33c.15,1.64.22,3.16.22,4.64a49.84,49.84,0,0,1-2.64,16c-.38,1.11-.75,2.09-1.13,3-.22.53-.45,1.06-.68,1.58l-.36.75-.39.81-.8,1.53-4.75,7.2-.14.16a9.83,9.83,0,0,0-.83,1A29.18,29.18,0,0,0,699.35,538c15.56,0,28.28-12.62,34-25.08a118,118,0,0,0,7.6-19.92l.31-.93c0-.12.07-.24.13-.46.76-2.41,1.38-4.56,1.86-6.51l0-.19a97.52,97.52,0,0,0,3.1-24.82v-.49c0-.52,0-1.22,0-1.58v-3.14a105.67,105.67,0,0,0-4.29-27.28l-.31-1a108.85,108.85,0,0,0-46.83-59.75,10.58,10.58,0,0,0-15.08,4.37A10.79,10.79,0,0,0,684,385a87.63,87.63,0,0,1,37.56,47.94l.17.53a87.81,87.81,0,0,1,3.46,22l.09,2.28c0,.38,0,.51,0,.84a87.85,87.85,0,0,1-2.6,21.27l0,.14c-.54,2.16-1.16,4.29-1.85,6.34l-.23.75a98,98,0,0,1-6.23,16.4l-.24.49c-3.29,7.31-9.63,12.83-14.75,12.83a8,8,0,0,1-8-8,7.85,7.85,0,0,1,1.22-4.22l.09-.11c.2-.24.39-.48.58-.73l.16-.19a70.09,70.09,0,0,0,10-16.86l.1-.2c.54-1.29,1-2.63,1.54-4.1l.07-.2a70.89,70.89,0,0,0,3.77-22.81c0-2.13-.1-4.28-.31-6.58A71.21,71.21,0,0,0,669,395.55a76.33,76.33,0,0,0-31.52-7.48l-3.07,0c-10.22,0-19.87,2.38-30.36,7.5a71,71,0,0,0-39.58,57.24c-.21,2.3-.32,4.45-.32,6.58a70.69,70.69,0,0,0,3.78,22.82c.53,1.56,1,3,1.6,4.3h0a71.06,71.06,0,0,0,10,17l.51.65.84,1.46.54,1.72.87-.17h0l-.82.42.05.42.88-.09h0l-.86.3q0,.31,0,.63a8,8,0,0,1-8,8c-5.12,0-11.46-5.52-14.76-12.85l-.23-.48a95.8,95.8,0,0,1-6.08-15.86l-.14-.44c0-.22-.11-.44-.18-.65-.72-2.14-1.37-4.37-1.94-6.63a87.7,87.7,0,0,1-2.62-21.28l.06-1.68A87.33,87.33,0,0,1,551,434.3a11.79,11.79,0,0,0,.69-1.67,87.61,87.61,0,0,1,37.24-48A10.8,10.8,0,0,0,593,370.86a10.5,10.5,0,0,0-6.6-5.52,10.62,10.62,0,0,0-8.5,1.18,109,109,0,0,0-45.51,56.92,10.45,10.45,0,0,0-.95,2.15,108.54,108.54,0,0,0-5,31V457c0,.42,0,.85,0,1.28a109,109,0,0,0,3.23,26.34Z" transform="translate(-462.41 -350)"/><path class="cls-1" d="M761.78,469.63c0,30.64-12,58.1-32.06,73.47-15.92,12.18-27.76,12-29,12l-.91,0a32.84,32.84,0,0,1-18.66-5.78,33.69,33.69,0,0,1-5.83-5.08c-.4-.44-.83-.95-1.31-1.56l-.16-.2q-.43-.54-.84-1.11l-.42-.6-.37-.53-1.42-2.35c-.1-.17-.19-.35-.35-.67l-1.39-3-.21-.56-.26-.71-1.47-6c0-.22-.07-.44-.1-.66l-.06-.57c0-.27-.06-.53-.08-.8l-.12-2.21c0-.27,0-.54,0-.81a9.93,9.93,0,0,0-5.48-9.27,10.91,10.91,0,0,0-10.74.41,10.54,10.54,0,0,0-5,9l0,1.6c0,.31,0,.61,0,.92s0,.62,0,.93l0,.49c0,.29,0,.57.07.85s0,.48.07.72l.05.47c0,.36.07.72.12,1.07s.06.46.1.69l0,.24c.07.43.13.87.21,1.31l.18,1c.07.41.15.83.24,1.23l.2.88c.1.44.2.87.32,1.3l.17.65c.14.5.28,1,.43,1.5l.19.58c.16.51.32,1,.5,1.54l.23.62c.18.49.36,1,.55,1.46l.21.5c.22.52.43,1,.66,1.55l.24.51c.23.5.46,1,.71,1.5l.37.72c.22.42.43.84.67,1.26l.49.86c.21.36.41.72.62,1.07l.34.53.3.47q.27.45.57.9l.52.75.77,1.11c.44.61.9,1.22,1.37,1.82.85,1.07,1.64,2,2.41,2.86a55.06,55.06,0,0,0,9.55,8.33c.56.38,1.13.76,1.7,1.12l.68.41c.35.22.71.44,1.06.64l.84.47.94.52.91.47.89.45,1,.48.8.36,1.07.45.79.33,1.1.41.79.3,1.08.36.83.27,1.08.32.85.24,1.12.29.84.2,1.13.24.84.18,1.12.19.87.15,1.17.16.84.11,1.07.11.95.09,1.08.06,1,0,1.8.05c.41,0,1,0,1.71,0,6.06,0,22.25-1.6,41.53-16.35,25.28-19.35,40.37-53.1,40.37-90.29a124.48,124.48,0,0,0-6.43-39.77,10.74,10.74,0,0,0-11.88-7.27,10.6,10.6,0,0,0-8.26,13.84A103.48,103.48,0,0,1,761.78,469.63Z" transform="translate(-462.41 -350)"/><path class="cls-1" d="M532,559.92c19.28,14.76,35.47,16.35,41.53,16.35.72,0,1.3,0,1.66,0l1.85,0,.88,0,1.16-.07L580,576l1.14-.11.82-.1,5.16-.93.79-.19,1.16-.3.78-.22,3.07-1,.72-.26,1.16-.44.76-.31,1.1-.47.73-.33,1.1-.51.79-.4,1-.52.81-.44,1-.55c.32-.18.64-.38,1-.58l.78-.47c.57-.36,1.13-.73,1.7-1.12a55.06,55.06,0,0,0,9.55-8.33c.75-.83,1.54-1.77,2.41-2.87A53.65,53.65,0,0,0,629.08,522a10.59,10.59,0,1,0-21.18,0,32.75,32.75,0,0,1-7.1,20.45c-.54.68-1,1.26-1.47,1.75a34.18,34.18,0,0,1-5.83,5.09A32.83,32.83,0,0,1,574.94,555l-.41,0-.58.08c-1.32,0-13.16.2-29.06-12-20.08-15.37-32.06-42.83-32.06-73.47a103.63,103.63,0,0,1,5.38-33.21,10.59,10.59,0,0,0-20.07-6.78,124.76,124.76,0,0,0-6.5,40C491.64,506.82,506.73,540.57,532,559.92Z" transform="translate(-462.41 -350)"/><path class="cls-1" d="M648.14,556.32v-3.61A10.8,10.8,0,0,0,639.28,542,10.61,10.61,0,0,0,627,552.44V556a10.8,10.8,0,0,0,8.86,10.73,11,11,0,0,0,1.71.14,10.59,10.59,0,0,0,10.62-10.59Z" transform="translate(-462.41 -350)"/><path class="cls-1" d="M803.71,492.13a10.6,10.6,0,0,0-10.59,10.59,97.81,97.81,0,0,1-25.07,65.46c-22.55,24.36-39.85,27.64-53.8,27.64a65.47,65.47,0,0,1-30.47-7.41,66.55,66.55,0,0,1-9.36-5.89l-.4-.29c-2.11-1.44-8.3-6.24-11.49-11.08a10.59,10.59,0,0,0-17.69,11.66c5.81,8.8,15.24,15.54,17,16.78A87.21,87.21,0,0,0,714.25,617c25.94,0,47.35-10.64,69.51-34.61a119,119,0,0,0,30.54-79.68A10.6,10.6,0,0,0,803.71,492.13Z" transform="translate(-462.41 -350)"/><path class="cls-1" d="M611.1,374a10.28,10.28,0,0,0,2.64-.34c1.2-.3,2.4-.58,3.5-.83a9.65,9.65,0,0,0,1.06-.15,87.07,87.07,0,0,1,10.2-1.36A10.6,10.6,0,0,0,638.28,360l0-.22a10.61,10.61,0,0,0-11.42-9.7,110.76,110.76,0,0,0-18.38,3.09A10.6,10.6,0,0,0,611.1,374Z" transform="translate(-462.41 -350)"/><circle class="cls-1" cx="195.67" cy="111.79" r="8.72"/><path class="cls-1" d="M603.76,461.79a8.72,8.72,0,1,0,8.72-8.72A8.73,8.73,0,0,0,603.76,461.79Z" transform="translate(-462.41 -350)"/><path class="cls-1" d="M888,528.94V424.38a3.22,3.22,0,0,1,3.22-3.23h3.93a15.84,15.84,0,0,1,15.69,13.63l.32,2.31c6.22-11.46,19.18-19.43,36.36-19.43,18.93,0,32.37,9.46,38.6,24.66,5.73-15.2,20.42-24.66,39.35-24.66,27.89,0,44.83,17.43,44.83,45.58v65.17a14.52,14.52,0,0,1-14.52,14.52h-4.36a4,4,0,0,1-4-4V469c0-19.17-10.71-30.13-27.15-30.13-17.68,0-29.39,12.45-29.39,31.88v68a4.2,4.2,0,0,1-4.21,4.21H971.94a4.21,4.21,0,0,1-4.21-4.21v-70c0-19.18-10.46-29.64-26.89-29.64-17.69,0-29.39,12.2-29.39,31.63V538.4a4.53,4.53,0,0,1-4.53,4.53H902A14,14,0,0,1,888,528.94Z" transform="translate(-462.41 -350)"/><path class="cls-1" d="M1197.6,425.24V539a3.93,3.93,0,0,1-3.93,3.92h-5.08a13.64,13.64,0,0,1-13.51-11.8l-.89-6.63c-7,12.7-23.16,21.42-41.1,21.42-28.38,0-44.32-19.18-44.32-49.06V426.29a5.14,5.14,0,0,1,5.14-5.14H1107a5.17,5.17,0,0,1,5.17,5.17v62.82c0,26.15,11.2,36.11,29.13,36.11,21.42,0,33.13-13.7,33.13-39.85V433.88a12.72,12.72,0,0,1,12.72-12.73h6.35A4.09,4.09,0,0,1,1197.6,425.24Z" transform="translate(-462.41 -350)"/><path class="cls-1" d="M1221.61,421.15h4.17a15.59,15.59,0,0,1,15.54,14.35l.6,7.56c8.22-16.68,24.66-25.4,44.08-25.4,34.87,0,56.54,26.15,56.54,63.51,0,37.11-20.43,65-56.54,65-19.42,0-35.61-8.22-43.58-23.16V592.4a5.07,5.07,0,0,1-5.07,5.07h-13.27a5.07,5.07,0,0,1-5.07-5.07V423.75A2.59,2.59,0,0,1,1221.61,421.15ZM1281,525c23.91,0,38.1-17.93,38.1-42.83,0-25.16-14.19-43.09-38.1-43.09s-38.35,17.68-38.35,43.09C1242.67,507.07,1257.11,525,1281,525Z" transform="translate(-462.41 -350)"/><path class="cls-1" d="M1350,509.06c0-22.41,16.69-36.36,45.33-38.6l38.35-3V464c0-20.42-12.2-27.64-28.64-27.64-18.55,0-29.57,7.75-30.77,21a2.71,2.71,0,0,1-2.69,2.46h0a14,14,0,0,1-11.6-21.69c8.43-12.78,24.86-20.4,46.06-20.4,30.13,0,50.55,15.94,50.55,48.81v71.84a4.62,4.62,0,0,1-4.62,4.62h-11.23a4.62,4.62,0,0,1-4.58-4l-2-15.63c-6.23,13.94-22.91,22.66-42.59,22.66C1365.44,545.92,1350,531.23,1350,509.06Zm83.93-18.68v-6.47l-31.13,2.49c-20.67,2-29.14,10-29.14,21.91,0,12.95,9.47,19.43,24.66,19.43C1420.48,527.74,1433.93,513.3,1433.93,490.38Z" transform="translate(-462.41 -350)"/></g></svg>